<?xml version="1.0" standalone="no"?>
<!DOCTYPE svg PUBLIC "-//W3C//DTD SVG 20010904//EN"
 "http://www.w3.org/TR/2001/REC-SVG-20010904/DTD/svg10.dtd">
<svg version="1.0" xmlns="http://www.w3.org/2000/svg"
 width="700.000000pt" height="241.000000pt" viewBox="0 0 700.000000 241.000000"
 preserveAspectRatio="xMidYMid meet">

<g transform="translate(0.000000,241.000000) scale(0.100000,-0.100000)"
fill="#000000" stroke="none">
<path d="M381 2399 c-86 -17 -173 -88 -223 -181 l-23 -43 0 -970 0 -970 30
-59 c31 -61 83 -113 150 -149 l40 -22 3210 0 3210 0 51 27 c57 30 112 87 146
150 l23 43 0 976 0 975 -25 49 c-34 67 -85 116 -156 151 l-59 29 -3165 1
c-1741 1 -3185 -2 -3209 -7z m1337 -367 c-5 -91 -49 -181 -121 -249 -55 -52
-142 -93 -199 -93 l-30 0 4 63 c10 146 121 278 276 328 31 10 61 18 66 18 4 1
7 -30 4 -67z m2222 -347 l0 -205 -25 0 -25 0 0 205 0 205 25 0 25 0 0 -205z
m900 0 l0 -205 -25 0 c-17 0 -25 6 -25 17 0 14 -2 14 -21 -3 -30 -27 -119 -26
-149 1 -50 45 -63 123 -30 190 33 68 114 97 168 59 l22 -15 0 74 c0 40 3 77 7
80 3 4 17 7 30 7 l23 0 0 -205z m1190 119 l0 -85 29 20 c53 38 121 21 150 -36
6 -12 11 -67 11 -122 l0 -101 -25 0 c-25 0 -25 1 -25 90 0 49 -5 100 -11 114
-21 46 -94 43 -119 -4 -5 -10 -10 -59 -10 -109 0 -90 0 -91 -25 -91 l-25 0 0
205 0 205 25 0 c25 0 25 -1 25 -86z m-3328 47 c50 -22 71 -43 93 -94 46 -110
-18 -252 -123 -274 -20 -4 -68 -7 -107 -8 l-70 0 -3 185 c-1 101 0 190 2 197
9 21 155 17 208 -6z m3158 -56 c0 -34 1 -35 40 -35 33 0 40 -3 40 -19 0 -16
-8 -20 -37 -23 l-38 -3 -3 -74 c-4 -89 10 -131 43 -131 22 0 40 -22 28 -34
-13 -13 -72 -5 -94 13 -21 17 -24 28 -27 125 -4 96 -6 106 -23 106 -12 0 -19
7 -19 20 0 13 7 20 20 20 15 0 20 7 20 28 0 33 7 42 32 42 14 0 18 -8 18 -35z
m-2809 -50 c66 -35 88 -128 48 -206 -44 -87 -183 -93 -232 -10 -20 34 -23 124
-4 161 31 61 123 88 188 55z m158 -72 c13 -49 26 -101 30 -118 l8 -30 12 45
c36 128 59 185 79 188 22 3 28 -9 63 -128 12 -41 24 -79 27 -84 3 -5 17 36 32
91 31 116 35 123 61 123 23 0 24 -3 0 -76 -10 -33 -29 -92 -41 -131 -21 -67
-25 -73 -50 -73 -25 0 -28 6 -60 108 -29 95 -34 104 -40 77 -4 -16 -19 -63
-34 -104 -14 -41 -26 -76 -26 -78 0 -3 -12 -3 -26 -1 -28 3 -26 -2 -78 167
-32 103 -32 111 -3 111 21 0 26 -9 46 -87z m418 67 c5 -20 5 -20 33 0 42 30
95 26 131 -9 29 -29 29 -31 29 -140 l0 -111 -25 0 -25 0 0 100 c0 87 -3 103
-20 120 -23 23 -39 25 -73 9 -36 -16 -47 -50 -47 -144 0 -84 0 -85 -25 -85
l-25 0 0 140 c0 135 1 140 21 140 12 0 23 -8 26 -20z m574 5 c96 -50 92 -220
-6 -261 -140 -58 -250 76 -175 215 29 54 120 77 181 46z m279 -2 c14 -9 27
-18 30 -21 3 -2 7 -57 10 -123 5 -118 5 -119 -17 -119 -15 0 -23 6 -23 18 0
10 -3 13 -8 6 -19 -29 -86 -43 -127 -28 -18 7 -45 55 -45 79 0 10 9 30 21 46
19 27 44 38 122 54 18 4 27 12 27 25 0 29 -36 43 -91 37 -32 -4 -49 -2 -52 6
-12 34 109 50 153 20z m751 2 c88 -46 93 -202 7 -255 -50 -32 -129 -24 -171
18 -26 26 -31 40 -35 90 -3 42 1 68 12 91 33 64 121 90 187 56z m170 -12 c0
-16 3 -22 6 -15 7 18 57 42 87 42 76 0 106 -54 106 -190 0 -89 0 -90 -25 -90
-25 0 -25 1 -25 85 0 98 -16 141 -56 151 -18 5 -34 0 -52 -13 -26 -19 -27 -25
-30 -122 -3 -99 -3 -101 -26 -101 -24 0 -24 1 -28 133 -2 72 -3 135 -1 140 3
4 13 7 24 7 14 0 19 -7 20 -27z m1073 2 c30 -28 46 -64 46 -106 l0 -29 -100 0
c-104 0 -110 -3 -88 -43 20 -38 40 -47 103 -45 47 1 61 -2 63 -14 6 -30 -108
-39 -159 -13 -66 35 -88 128 -49 205 24 47 61 69 116 70 30 0 48 -7 68 -25z
m-4706 -65 c88 -15 168 -54 226 -113 l49 -50 -29 -21 c-82 -60 -121 -114 -153
-215 -24 -74 -11 -184 32 -270 27 -55 112 -142 155 -160 18 -7 32 -20 32 -29
0 -30 -90 -202 -143 -275 -64 -86 -86 -109 -142 -145 -51 -33 -146 -35 -216
-4 -112 49 -208 51 -327 6 -140 -52 -209 -39 -302 57 -82 84 -156 204 -215
344 -77 186 -88 463 -24 610 30 69 100 154 160 194 119 80 235 92 379 39 98
-35 153 -44 184 -30 68 32 198 69 251 71 11 1 48 -4 83 -9z m2965 -422 c15 -6
27 -11 27 -13 0 -1 -5 -16 -11 -33 -9 -26 -14 -30 -29 -22 -10 5 -42 12 -72
16 -98 11 -158 -36 -143 -114 6 -35 51 -72 115 -93 53 -18 125 -68 144 -100
20 -35 21 -130 1 -169 -47 -90 -196 -125 -321 -75 -41 16 -42 17 -31 48 7 18
12 33 13 35 0 1 16 -6 35 -15 19 -10 64 -19 100 -21 63 -4 67 -3 102 31 29 26
37 42 37 68 0 58 -30 93 -106 124 -130 54 -174 100 -174 181 0 87 51 143 155
168 28 7 125 -3 158 -16z m-1850 -30 c8 -24 46 -133 83 -243 37 -110 77 -229
90 -264 13 -35 24 -68 24 -73 0 -5 -19 -8 -42 -6 -47 3 -38 -11 -92 146 l-18
53 -111 -3 -112 -3 -27 -80 c-15 -44 -30 -88 -33 -97 -5 -13 -17 -18 -46 -18
-21 0 -39 3 -39 6 0 6 67 208 160 479 23 66 43 126 45 133 3 7 23 12 53 12 49
0 49 0 65 -42z m2107 -73 l0 -65 60 0 60 0 0 -30 0 -30 -60 0 -60 0 0 -137 c0
-167 7 -187 67 -191 35 -3 42 -7 46 -30 6 -33 7 -33 -42 -39 -76 -10 -127 19
-142 84 -5 21 -9 100 -9 176 l0 137 -35 0 c-32 0 -35 2 -35 30 0 28 3 30 35
30 l35 0 0 54 c0 50 2 55 28 64 50 19 52 16 52 -53z m-1482 -88 c100 -66 121
-246 42 -356 -32 -43 -103 -81 -154 -81 -42 0 -99 23 -126 52 l-20 22 0 -127
0 -127 -40 0 -40 0 0 320 0 320 35 0 c33 0 35 -2 35 -35 0 -40 9 -44 28 -14
38 61 167 75 240 26z m493 22 c76 -23 129 -112 129 -218 0 -71 -22 -136 -57
-173 -34 -36 -104 -68 -147 -68 -40 0 -97 22 -117 46 -12 15 -15 3 -19 -102
l-5 -119 -42 -3 -43 -3 0 320 0 321 35 0 c33 0 35 -2 35 -35 0 -40 9 -44 28
-14 17 27 88 58 131 59 18 0 51 -5 72 -11z m1455 0 c53 -14 106 -60 128 -113
21 -50 21 -165 1 -214 -22 -51 -52 -81 -110 -108 -109 -52 -235 -9 -292 99
-21 40 -22 168 -2 213 50 109 151 154 275 123z m474 -29 c0 -38 -1 -40 -32
-40 -39 0 -70 -23 -92 -67 -12 -25 -16 -63 -16 -173 l0 -140 -40 0 -40 0 0
194 c0 106 -3 208 -6 225 -6 31 -6 31 35 31 l41 0 0 -47 0 -48 18 35 c20 37
71 70 110 70 19 0 22 -5 22 -40z m359 13 c40 -29 81 -118 81 -175 l0 -48 -161
0 -161 0 7 -36 c8 -47 20 -65 61 -93 28 -20 42 -22 111 -19 43 2 85 6 93 8 11
4 16 -4 18 -26 3 -29 1 -31 -48 -42 -137 -32 -242 5 -292 101 -29 55 -31 163
-5 227 22 52 76 106 121 120 47 14 145 5 175 -17z"/>
<path d="M4655 1695 c-21 -20 -25 -34 -25 -80 0 -46 4 -60 25 -80 30 -31 73
-32 103 -5 18 17 22 32 22 87 0 55 -4 69 -22 84 -30 27 -74 24 -103 -6z"/>
<path d="M2540 1671 l0 -161 44 0 c122 0 199 98 166 214 -19 68 -63 99 -146
104 l-64 4 0 -161z"/>
<path d="M2924 1695 c-24 -24 -26 -32 -22 -87 5 -74 30 -101 87 -96 27 2 41
11 58 37 13 19 23 48 23 66 0 18 -10 47 -23 66 -31 46 -84 52 -123 14z"/>
<path d="M4094 1712 c-42 -29 -57 -108 -29 -161 30 -59 110 -56 143 6 17 32
15 95 -5 123 -23 34 -33 40 -68 40 -16 0 -35 -4 -41 -8z"/>
<path d="M4399 1609 c-63 -23 -59 -99 5 -99 42 0 66 26 66 73 0 32 -3 37 -22
36 -13 0 -35 -5 -49 -10z"/>
<path d="M5110 1698 c-26 -28 -34 -59 -27 -105 18 -106 143 -112 163 -7 8 45
-11 110 -36 124 -32 17 -78 12 -100 -12z"/>
<path d="M6374 1720 c-24 -9 -54 -47 -54 -67 0 -9 21 -13 76 -13 l76 0 -7 28
c-11 46 -50 69 -91 52z"/>
<path d="M2810 1168 c0 -8 -18 -69 -40 -136 -22 -66 -40 -125 -40 -131 0 -7
32 -11 91 -11 69 0 90 3 86 13 -2 6 -23 71 -47 142 -42 132 -50 150 -50 123z"/>
<path d="M3340 1017 c-48 -22 -70 -52 -82 -107 -17 -81 -4 -146 37 -187 29
-29 40 -33 84 -33 71 0 117 41 131 118 18 100 -14 178 -86 208 -39 16 -51 17
-84 1z"/>
<path d="M3862 1009 c-59 -29 -72 -60 -72 -165 0 -86 0 -87 36 -120 30 -29 43
-34 84 -34 67 0 113 39 130 110 23 95 -7 177 -75 210 -51 25 -51 25 -103 -1z"/>
<path d="M5325 1011 c-62 -37 -89 -114 -72 -201 28 -143 186 -172 247 -46 71
148 -52 323 -175 247z"/>
<path d="M6096 994 c-20 -20 -36 -42 -36 -49 0 -7 -3 -20 -6 -29 -5 -14 9 -16
115 -16 l121 0 0 31 c0 22 -10 41 -34 65 -29 29 -41 34 -79 34 -38 0 -50 -5
-81 -36z"/>
</g>
</svg>
