<?xml version="1.0" standalone="no"?>
<!DOCTYPE svg PUBLIC "-//W3C//DTD SVG 20010904//EN"
 "http://www.w3.org/TR/2001/REC-SVG-20010904/DTD/svg10.dtd">
<svg version="1.0" xmlns="http://www.w3.org/2000/svg"
 width="719.000000pt" height="404.000000pt" viewBox="0 0 719.000000 404.000000"
 preserveAspectRatio="xMidYMid meet">

<g transform="translate(0.000000,404.000000) scale(0.100000,-0.100000)"
fill="#000000" stroke="none">
<path d="M182 3159 c-74 -37 -134 -102 -159 -172 -17 -49 -18 -111 -18 -972
l0 -920 27 -56 c36 -71 89 -125 158 -158 l55 -26 3350 0 3350 0 55 26 c70 33
126 89 159 159 l26 55 3 905 c2 895 2 905 -19 974 -17 58 -30 78 -77 125 -103
102 303 91 -3503 91 l-3346 0 -61 -31z m888 -714 c251 -144 489 -282 530 -307
41 -24 121 -70 177 -102 115 -65 131 -79 114 -100 -7 -8 -84 -56 -172 -107
l-161 -92 -106 106 -107 106 -275 -271 c-525 -518 -510 -504 -520 -488 -12 19
0 1193 12 1201 5 3 78 5 163 3 l155 -2 -19 27 c-11 14 -78 84 -150 156 -72 71
-131 133 -131 137 0 13 29 -3 490 -267z m1272 185 c33 -99 34 -110 9 -110 -12
0 -23 11 -30 30 -8 25 -15 30 -44 30 -30 0 -35 -4 -40 -30 -5 -21 -12 -30 -27
-30 -25 0 -25 6 4 82 48 126 44 120 73 116 23 -3 29 -12 55 -88z m149 25 c22
-36 43 -65 46 -65 2 0 3 28 1 62 -3 53 0 63 15 66 15 3 17 -7 17 -97 0 -90 -2
-101 -17 -101 -11 0 -37 29 -66 73 l-48 72 3 -70 c3 -60 1 -70 -14 -73 -16 -3
-18 7 -18 97 0 94 1 101 20 101 13 0 33 -21 61 -65z m270 36 c42 -43 40 -92
-6 -138 -31 -31 -39 -34 -81 -31 l-48 3 1 93 c1 50 2 94 2 97 1 3 24 5 52 5
43 0 55 -5 80 -29z m190 19 c23 -13 26 -62 4 -80 -13 -11 -13 -15 -2 -29 12
-15 37 -66 37 -76 0 -3 -9 -5 -20 -5 -13 0 -26 13 -37 38 -12 24 -26 38 -41
40 -20 3 -22 -1 -22 -37 0 -34 -3 -41 -20 -41 -19 0 -20 7 -20 100 l0 100 51
0 c28 0 59 -5 70 -10z m222 -10 c32 -25 42 -69 27 -115 -15 -44 -44 -65 -93
-65 -56 0 -87 35 -87 96 0 38 5 54 27 76 33 35 88 38 126 8z m117 -80 c0 -93
-1 -100 -20 -100 -19 0 -20 7 -20 100 0 93 1 100 20 100 19 0 20 -7 20 -100z
m191 71 c19 -20 29 -40 29 -60 0 -70 -44 -111 -120 -111 l-40 0 0 100 0 100
51 0 c43 0 55 -5 80 -29z m287 -64 c17 -50 32 -95 32 -99 0 -5 -11 -8 -24 -8
-18 0 -25 7 -29 30 -6 26 -11 30 -41 30 -29 0 -36 -5 -45 -30 -7 -21 -17 -30
-32 -30 -13 0 -19 5 -16 13 69 186 70 187 96 187 24 0 29 -8 59 -93z m192 73
c11 -11 20 -26 20 -34 0 -25 -35 -57 -70 -65 -31 -6 -34 -10 -34 -41 -1 -27
-5 -35 -19 -35 -17 0 -19 9 -18 93 0 50 0 94 1 97 0 3 23 5 50 5 37 0 55 -5
70 -20z m178 4 c12 -8 22 -26 22 -39 0 -28 -43 -65 -76 -65 -21 0 -24 -5 -24
-40 0 -33 -3 -40 -20 -40 -19 0 -20 7 -20 100 l0 100 48 0 c27 0 57 -7 70 -16z
m287 -9 c35 -34 35 -102 -1 -144 -20 -25 -34 -31 -64 -31 -72 0 -114 62 -90
135 15 44 44 65 93 65 27 0 45 -7 62 -25z m152 -37 l38 -62 3 62 c3 54 6 62
22 62 19 0 20 -7 20 -100 0 -89 -2 -100 -17 -100 -11 0 -37 29 -65 71 l-48 71
0 -71 c0 -56 -3 -71 -15 -71 -12 0 -15 18 -15 100 0 92 1 100 19 100 13 0 32
-20 58 -62z m13 -302 c0 -2 -7 -17 -15 -32 -12 -24 -15 -79 -15 -304 0 -151 3
-285 6 -297 5 -17 14 -23 35 -23 32 0 47 -15 23 -24 -25 -10 -174 -7 -174 3 0
6 5 13 10 16 6 4 10 120 10 316 l0 309 -32 0 -33 1 35 19 c30 17 150 29 150
16z m-1869 -42 c30 -9 71 -25 93 -36 l39 -20 -44 -44 c-45 -46 -78 -60 -59
-25 21 40 -104 111 -195 111 -91 0 -194 -62 -238 -144 -19 -35 -22 -57 -22
-146 0 -100 1 -108 34 -168 39 -71 79 -111 152 -148 61 -30 164 -42 227 -25
l42 12 0 81 0 81 -65 -7 c-36 -4 -65 -4 -65 -2 0 3 13 12 30 21 20 10 59 15
131 15 93 0 100 -1 88 -16 -8 -10 -16 -52 -19 -102 l-5 -86 -80 -18 c-179 -40
-309 -33 -409 20 -185 100 -228 373 -85 536 45 51 107 91 172 111 60 19 212
18 278 -1z m3229 -339 l0 -325 -35 0 -35 0 0 325 0 325 35 0 35 0 0 -325z
m-2662 113 c110 -52 152 -199 90 -311 -111 -199 -430 -140 -446 82 -5 74 10
123 56 173 78 86 192 107 300 56z m515 5 c46 -19 103 -84 117 -132 24 -87 5
-169 -53 -229 -111 -116 -305 -99 -382 32 -65 111 -30 248 82 317 63 39 155
44 236 12z m1106 16 c38 -8 58 -20 85 -50 20 -21 36 -45 36 -53 0 -19 -219
-109 -256 -104 -25 2 -15 9 64 43 78 33 92 43 92 63 0 37 -43 72 -87 72 -78 0
-119 -58 -110 -157 7 -74 33 -129 81 -171 62 -54 114 -61 211 -27 13 4 9 -4
-14 -24 -40 -35 -116 -56 -173 -47 -116 19 -187 108 -188 235 0 113 56 189
158 217 26 7 48 13 49 13 1 1 25 -4 52 -10z m183 -24 c-2 -19 -6 -35 -8 -35
-2 0 -4 16 -4 35 0 19 4 35 8 35 4 0 6 -16 4 -35z m585 16 c54 -25 89 -78 103
-158 14 -80 -1 -172 -36 -226 -52 -80 -183 -101 -260 -42 l-34 26 0 -130 0
-131 -35 0 -35 0 0 335 0 335 30 0 c27 0 30 -3 30 -32 l0 -31 23 21 c55 52
142 65 214 33z m662 -5 c55 -29 61 -54 61 -261 l0 -185 -24 0 c-19 0 -26 7
-31 31 l-7 31 -22 -21 c-31 -30 -89 -51 -138 -51 -157 0 -203 185 -64 257 16
8 70 18 120 22 l91 6 3 42 c6 84 -63 114 -172 77 -50 -17 -65 -11 -66 23 0 45
177 66 249 29z m-1192 -8 l10 -23 7 23 c4 12 11 22 16 22 5 0 1 -13 -8 -29 -9
-16 -17 -29 -17 -28 -1 1 -9 14 -18 30 -10 15 -14 27 -9 27 5 0 13 -10 19 -22z
m1434 -138 c33 -85 64 -173 70 -195 l11 -39 69 194 c38 107 69 196 69 198 0 1
18 2 39 2 l39 0 -109 -287 c-60 -159 -117 -299 -127 -312 -41 -55 -108 -82
-166 -67 -19 5 -26 13 -26 31 0 23 4 25 44 25 56 0 88 25 115 92 l21 53 -90
225 c-49 123 -90 228 -90 233 0 4 16 7 36 5 l36 -3 59 -155z m-2191 135 c-14
-8 -37 -14 -52 -15 -16 0 -28 -2 -28 -5 0 -2 11 -21 25 -41 19 -28 25 -50 25
-91 0 -51 -3 -57 -50 -107 -27 -29 -50 -62 -50 -73 0 -12 24 -41 60 -72 96
-84 104 -167 24 -245 -47 -45 -110 -66 -201 -66 -111 0 -180 36 -203 106 -9
27 -8 41 8 77 29 65 64 83 221 113 18 4 21 8 12 17 -6 6 -11 28 -11 49 0 37
-1 38 -35 38 -66 0 -136 56 -150 119 -16 73 47 173 126 198 19 6 95 11 169 12
122 0 133 -1 110 -14z"/>
<path d="M2263 2645 c-11 -34 -10 -35 14 -35 22 0 24 3 18 28 -10 43 -21 45
-32 7z"/>
<path d="M2660 2633 c0 -71 9 -88 42 -80 23 6 48 43 48 71 0 25 -41 66 -66 66
-23 0 -24 -3 -24 -57z"/>
<path d="M2870 2660 c0 -28 3 -31 28 -28 21 2 27 8 27 28 0 20 -6 26 -27 28
-25 3 -28 0 -28 -28z"/>
<path d="M3077 2672 c-23 -26 -22 -85 3 -107 28 -25 65 -13 79 25 23 67 -39
129 -82 82z"/>
<path d="M3389 2686 c-2 -2 -2 -34 -1 -70 3 -57 6 -66 23 -66 29 0 59 36 59
70 0 34 -30 70 -58 70 -10 0 -21 -2 -23 -4z"/>
<path d="M3691 2650 c-14 -42 -15 -40 15 -40 22 0 24 3 18 23 -14 47 -21 51
-33 17z"/>
<path d="M3872 2658 c3 -29 6 -33 28 -30 13 1 29 7 35 13 15 15 -8 44 -39 47
-25 3 -27 1 -24 -30z"/>
<path d="M4059 2685 c-3 -2 -4 -19 -1 -35 4 -26 8 -30 26 -24 33 10 42 22 30
42 -11 17 -45 28 -55 17z"/>
<path d="M4333 2682 c-22 -14 -33 -59 -22 -92 23 -65 99 -43 99 30 0 53 -40
85 -77 62z"/>
<path d="M3116 2079 c-37 -11 -66 -37 -82 -76 -44 -104 31 -297 123 -317 40
-9 102 14 126 46 44 59 31 212 -23 287 -42 57 -88 77 -144 60z"/>
<path d="M3643 2083 c-36 -7 -80 -56 -93 -101 -21 -79 19 -214 78 -264 17 -14
45 -29 62 -33 41 -9 99 21 125 65 37 64 18 205 -38 282 -18 24 -85 60 -105 57
-4 -1 -17 -4 -29 -6z"/>
<path d="M5521 2047 c-47 -24 -65 -62 -69 -144 -7 -133 27 -193 115 -200 63
-5 93 12 121 67 30 59 31 164 2 220 -32 63 -108 88 -169 57z"/>
<path d="M6170 1859 c-45 -18 -60 -39 -60 -85 0 -53 25 -74 90 -74 79 0 129
49 130 128 l0 42 -67 -1 c-38 0 -79 -5 -93 -10z"/>
<path d="M4099 2041 c-22 -22 -29 -39 -29 -68 0 -97 50 -173 115 -173 48 0 70
13 85 50 15 37 7 97 -20 150 -38 75 -100 92 -151 41z"/>
<path d="M4108 1624 c-82 -25 -113 -99 -66 -159 29 -37 76 -55 144 -55 94 0
145 38 144 108 -1 32 -14 52 -65 92 -43 34 -81 38 -157 14z"/>
</g>
</svg>
